<svg xmlns="http://www.w3.org/2000/svg" width="32" height="32">
  <path d="M32 18.514v-5.029l-4.973-.497a11.391 11.391 0 00-1.1-2.656l3.269-3.995-3.533-3.533-3.995 3.269a11.306 11.306 0 00-2.656-1.1L18.515 0h-5.029l-.497 4.973c-.939.256-1.83.628-2.656 1.1L6.338 2.804 2.805 6.337l3.269 3.995a11.306 11.306 0 00-1.1 2.656l-4.973.497v5.029l4.973.497c.256.939.628 1.83 1.1 2.656l-3.269 3.995 3.533 3.533 3.995-3.269c.826.473 1.717.845 2.656 1.1l.497 4.973h5.029l.497-4.973c.939-.256 1.83-.628 2.656-1.1l3.995 3.269 3.533-3.533-3.269-3.995c.473-.826.845-1.717 1.1-2.656L32 18.514zM22 18l-4 4h-4l-4-4v-4l4-4h4l4 4v4z"/>
</svg>