<svg xmlns="http://www.w3.org/2000/svg" width="32" height="32">
  <path d="M16 6C9.373 6 4 11.373 4 18s5.373 12 12 12 12-5.373 12-12S22.627 6 16 6zm6.364 18.364C20.664 26.064 18.404 27 16 27s-4.664-.936-6.364-2.636C7.936 22.664 7 20.404 7 18s.936-4.664 2.636-6.364C11.336 9.936 13.596 9 16 9s4.664.936 6.364 2.636C24.064 13.336 25 15.596 25 18s-.936 4.664-2.636 6.364zM10.185 6.371L8.843 3.687a16.066 16.066 0 00-7.156 7.157l2.684 1.342a13.054 13.054 0 015.815-5.815zm17.444 5.814l2.684-1.342a16.066 16.066 0 00-7.156-7.157L21.815 6.37a13.054 13.054 0 015.815 5.815zM16 12h-2v6c0 .316.147.597.376.78l5 4 1.249-1.562-4.625-3.7v-5.519z"/>
</svg>