<svg xmlns="http://www.w3.org/2000/svg" width="32" height="32">
  <path d="M10 22c.55.55 1.477.523 2.061-.061l9.879-9.879c.583-.583.611-1.511.061-2.061s-1.477-.523-2.061.061l-9.879 9.879C9.478 20.522 9.45 21.45 10 22zm4.903-.903c.143.283.218.599.218.928a2.03 2.03 0 01-.594 1.447l-5.106 5.106c-.383.383-.897.593-1.447.593s-1.064-.211-1.447-.593l-3.106-3.106c-.383-.383-.594-.897-.594-1.447s.211-1.064.594-1.447l5.106-5.106a2.03 2.03 0 011.447-.594c.329 0 .645.076.928.218l2.042-2.042a4.87 4.87 0 00-2.97-1.005c-1.25 0-2.499.474-3.447 1.422l-5.106 5.106a4.889 4.889 0 000 6.894l3.106 3.106c.948.948 2.197 1.422 3.447 1.422s2.499-.474 3.447-1.422l5.106-5.106c1.744-1.744 1.882-4.509.417-6.417l-2.042 2.042zM30.578 4.528l-3.106-3.106C26.524.474 25.275 0 24.025 0s-2.499.474-3.447 1.422l-5.106 5.106c-1.744 1.744-1.882 4.509-.417 6.417l2.042-2.042a2.064 2.064 0 01-.218-.928c0-.55.211-1.064.593-1.447l5.106-5.106c.383-.383.897-.594 1.447-.594s1.064.211 1.447.594l3.106 3.106c.383.383.593.897.593 1.447s-.211 1.064-.593 1.447l-5.106 5.106a2.03 2.03 0 01-1.447.594c-.329 0-.645-.076-.928-.218l-2.042 2.042a4.87 4.87 0 002.97 1.005c1.25 0 2.499-.474 3.447-1.422l5.106-5.106a4.889 4.889 0 000-6.894z"/>
</svg>