<!-- Generated by IcoMoon.io -->
<svg version="1.1" xmlns="http://www.w3.org/2000/svg" width="32" height="32" viewBox="0 0 32 32">
<title>pastetext</title>
<path d="M16 16v4h1l1-2h2v8h-1.5v2h7v-2h-1.5v-8h2l1 2h1v-4zM26 10v-5c0-0.55-0.45-1-1-1h-7v-2c0-1.1-0.9-2-2-2h-4c-1.1 0-2 0.9-2 2v2h-7c-0.55 0-1 0.45-1 1v20c0 0.55 0.45 1 1 1h9v6h20v-22h-6zM12 2.004c0.001-0.001 0.002-0.002 0.004-0.004h3.993c0.001 0.001 0.003 0.002 0.004 0.004v1.996h-4v-1.996zM6 8v-2h16v2h-16zM30 30h-16v-18h16v18z"></path>
</svg>
