<!-- Generated by IcoMoon.io -->
<svg version="1.1" xmlns="http://www.w3.org/2000/svg" width="32" height="32" viewBox="0 0 32 32">
<title>strikethrough</title>
<path d="M22.857 16.157c1.997 1.498 3.143 3.628 3.143 5.843s-1.146 4.345-3.143 5.843c-1.855 1.391-4.29 2.157-6.857 2.157s-5.002-0.766-6.857-2.157c-1.998-1.498-3.143-3.628-3.143-5.843h4c0 2.168 2.748 4 6 4s6-1.832 6-4c0-2.168-2.748-4-6-4-2.567 0-5.002-0.766-6.857-2.157-1.998-1.498-3.143-3.628-3.143-5.843s1.146-4.345 3.143-5.843c1.855-1.391 4.29-2.157 6.857-2.157s5.002 0.766 6.857 2.157c1.997 1.498 3.143 3.628 3.143 5.843h-4c0-2.168-2.748-4-6-4s-6 1.832-6 4c0 2.168 2.748 4 6 4 2.567 0 5.002 0.766 6.857 2.157zM0 16h32v2h-32z"></path>
</svg>
